<!--https://github.com/jramo5 -->
<svg width="194" height="193" viewBox="0 0 194 193" fill="none" xmlns="http://www.w3.org/2000/svg">
<path d="M58 12C58 5.92487 62.9249 1 69 1H125C131.075 1 136 5.92487 136 12V45C136 51.0751 140.925 56 147 56H182C188.075 56 193 60.9249 193 67V126C193 132.075 188.075 137 182 137H147C140.925 137 136 141.925 136 148V181C136 187.075 131.075 192 125 192H69C62.9249 192 58 187.075 58 181V148C58 141.925 53.0751 137 47 137H12C5.92487 137 1 132.075 1 126V67C1 60.9249 5.92487 56 12 56H47C53.0751 56 58 51.0751 58 45V12Z" fill="black" stroke="black"/>
<path d="M120.5 93C120.5 105.407 109.999 115.5 97 115.5C84.001 115.5 73.5 105.407 73.5 93C73.5 80.5934 84.001 70.5 97 70.5C109.999 70.5 120.5 80.5934 120.5 93Z" fill="#363131" stroke="black"/>
<path d="M40.0338 112.9L11.8812 93.5L40.0338 74.1002V112.9Z" fill="#363131" stroke="black"/>
<path d="M154.5 111.592L183.119 91.871L154.5 72.1499V111.592Z" fill="#363131" stroke="black"/>
<path d="M116.833 149.554L97 178.335L77.1672 149.554H116.833Z" fill="#363131" stroke="black"/>
<path d="M77.1499 39.5L96.871 10.8812L116.592 39.5H77.1499Z" fill="#363131" stroke="#0A0A0A"/>
</svg>
